<svg width="44" height="44" viewBox="0 0 44 44" fill="none" xmlns="http://www.w3.org/2000/svg">
<rect x="1" y="1" width="42" height="42" rx="21" fill="#0F172A"/>
<rect x="1" y="1" width="42" height="42" rx="21" stroke="#5355DD" stroke-width="2"/>
<path d="M13 17.5V22C13 26.9706 17.0294 31 22 31C26.9706 31 31 26.9706 31 22V17.5M13 17.5V15C13 13.8954 13.8954 13 15 13H16.625C17.7296 13 18.625 13.8954 18.625 15V17.5M13 17.5H18.625M18.625 17.5V22C18.625 23.864 20.136 25.375 22 25.375C23.864 25.375 25.375 23.864 25.375 22V17.5M25.375 17.5V15C25.375 13.8954 26.2704 13 27.375 13H29C30.1046 13 31 13.8954 31 15V17.5M25.375 17.5H31" stroke="white" stroke-width="1.5" stroke-linecap="round" stroke-linejoin="round"/>
</svg>
