<svg width="10" height="10" viewBox="0 0 10 10" fill="none" xmlns="http://www.w3.org/2000/svg">
<path d="M6.6665 4.58333V4.375" stroke="white" stroke-width="0.5" stroke-linecap="round" stroke-linejoin="round"/>
<path d="M5 4.58333V4.375" stroke="white" stroke-width="0.5" stroke-linecap="round" stroke-linejoin="round"/>
<path d="M3.3335 4.58333V4.375" stroke="white" stroke-width="0.5" stroke-linecap="round" stroke-linejoin="round"/>
<path d="M1.44369 7.01184C0.833496 6.52369 0.833496 6.15468 0.833496 4.58333C0.833496 3.01198 0.833496 2.22631 1.44369 1.73816C2.05388 1.25 3.03598 1.25 5.00016 1.25C6.96435 1.25 7.94644 1.25 8.55664 1.73816C9.16683 2.22631 9.16683 3.01198 9.16683 4.58333C9.16683 6.15468 9.16683 6.52369 8.55664 7.01184C7.94644 7.5 6.96435 7.5 5.00016 7.5C3.95455 7.5 3.41672 8.22398 2.50016 8.75V7.41178C2.04436 7.34396 1.7089 7.22401 1.44369 7.01184Z" stroke="white" stroke-linecap="round" stroke-linejoin="round"/>
</svg>
