<svg width="40" height="40" viewBox="0 0 40 40" fill="none" xmlns="http://www.w3.org/2000/svg">
<mask id="mask0_114_945" style="mask-type:alpha" maskUnits="userSpaceOnUse" x="0" y="0" width="40" height="40">
<rect width="40" height="40" fill="#D9D9D9"/>
</mask>
<g mask="url(#mask0_114_945)">
<path d="M8.33331 31.6668C7.86109 31.6668 7.46525 31.5071 7.14581 31.1877C6.82637 30.8682 6.66664 30.4724 6.66664 30.0002C6.66664 29.5279 6.82637 29.1321 7.14581 28.8127C7.46525 28.4932 7.86109 28.3335 8.33331 28.3335H9.99998V16.6668C9.99998 14.3613 10.6944 12.3127 12.0833 10.521C13.4722 8.72933 15.2778 7.55572 17.5 7.00016V5.8335C17.5 5.13905 17.743 4.54877 18.2291 4.06266C18.7153 3.57655 19.3055 3.3335 20 3.3335C20.6944 3.3335 21.2847 3.57655 21.7708 4.06266C22.2569 4.54877 22.5 5.13905 22.5 5.8335V7.00016C24.7222 7.55572 26.5278 8.72933 27.9166 10.521C29.3055 12.3127 30 14.3613 30 16.6668V28.3335H31.6666C32.1389 28.3335 32.5347 28.4932 32.8541 28.8127C33.1736 29.1321 33.3333 29.5279 33.3333 30.0002C33.3333 30.4724 33.1736 30.8682 32.8541 31.1877C32.5347 31.5071 32.1389 31.6668 31.6666 31.6668H8.33331ZM20 36.6668C19.0833 36.6668 18.2986 36.3404 17.6458 35.6877C16.993 35.0349 16.6666 34.2502 16.6666 33.3335H23.3333C23.3333 34.2502 23.0069 35.0349 22.3541 35.6877C21.7014 36.3404 20.9166 36.6668 20 36.6668ZM13.3333 28.3335H26.6666V16.6668C26.6666 14.8335 26.0139 13.2641 24.7083 11.9585C23.4028 10.6529 21.8333 10.0002 20 10.0002C18.1666 10.0002 16.5972 10.6529 15.2916 11.9585C13.9861 13.2641 13.3333 14.8335 13.3333 16.6668V28.3335ZM4.99998 16.6668C4.52775 16.6668 4.13192 16.4863 3.81248 16.1252C3.49303 15.7641 3.36109 15.3474 3.41664 14.8752C3.63886 12.7918 4.2222 10.8543 5.16664 9.06266C6.11109 7.271 7.31942 5.7085 8.79164 4.37516C9.15275 4.06961 9.56248 3.93072 10.0208 3.9585C10.4791 3.98627 10.8472 4.19461 11.125 4.5835C11.4028 4.97238 11.5139 5.38905 11.4583 5.8335C11.4028 6.27794 11.1944 6.66683 10.8333 7.00016C9.74998 8.02794 8.86109 9.22238 8.16664 10.5835C7.4722 11.9446 7.01387 13.4168 6.79164 15.0002C6.73609 15.4724 6.54164 15.8682 6.20831 16.1877C5.87498 16.5071 5.4722 16.6668 4.99998 16.6668ZM35 16.6668C34.5278 16.6668 34.125 16.5071 33.7916 16.1877C33.4583 15.8682 33.2639 15.4724 33.2083 15.0002C32.9861 13.4168 32.5278 11.9446 31.8333 10.5835C31.1389 9.22238 30.25 8.02794 29.1666 7.00016C28.8055 6.66683 28.5972 6.27794 28.5416 5.8335C28.4861 5.38905 28.5972 4.97238 28.875 4.5835C29.1528 4.19461 29.5208 3.98627 29.9791 3.9585C30.4375 3.93072 30.8472 4.06961 31.2083 4.37516C32.6805 5.7085 33.8889 7.271 34.8333 9.06266C35.7778 10.8543 36.3611 12.7918 36.5833 14.8752C36.6389 15.3474 36.5069 15.7641 36.1875 16.1252C35.868 16.4863 35.4722 16.6668 35 16.6668Z" fill="#3B82F6"/>
</g>
</svg>
