<svg width="48" height="56" viewBox="0 0 48 56" fill="none" xmlns="http://www.w3.org/2000/svg">
<g filter="url(#filter0_d_155_280)">
<rect x="2.5" y="7" width="34" height="34" rx="8" fill="#0F172A"/>
<path d="M23.5 20C25.0913 20 26.6174 20.6321 27.7426 21.7574C28.8679 22.8826 29.5 24.4087 29.5 26V33H25.5V26C25.5 25.4696 25.2893 24.9609 24.9142 24.5858C24.5391 24.2107 24.0304 24 23.5 24C22.9696 24 22.4609 24.2107 22.0858 24.5858C21.7107 24.9609 21.5 25.4696 21.5 26V33H17.5V26C17.5 24.4087 18.1321 22.8826 19.2574 21.7574C20.3826 20.6321 21.9087 20 23.5 20ZM9.5 21H13.5V33H9.5V21Z" stroke="white" stroke-linecap="round" stroke-linejoin="round"/>
<path d="M11.5 18C12.6046 18 13.5 17.1046 13.5 16C13.5 14.8954 12.6046 14 11.5 14C10.3954 14 9.5 14.8954 9.5 16C9.5 17.1046 10.3954 18 11.5 18Z" stroke="white" stroke-linecap="round" stroke-linejoin="round"/>
</g>
<defs>
<filter id="filter0_d_155_280" x="-8.5" y="0" width="56" height="56" filterUnits="userSpaceOnUse" color-interpolation-filters="sRGB">
<feFlood flood-opacity="0" result="BackgroundImageFix"/>
<feColorMatrix in="SourceAlpha" type="matrix" values="0 0 0 0 0 0 0 0 0 0 0 0 0 0 0 0 0 0 127 0" result="hardAlpha"/>
<feMorphology radius="1" operator="dilate" in="SourceAlpha" result="effect1_dropShadow_155_280"/>
<feOffset dy="4"/>
<feGaussianBlur stdDeviation="5"/>
<feComposite in2="hardAlpha" operator="out"/>
<feColorMatrix type="matrix" values="0 0 0 0 0 0 0 0 0 0 0 0 0 0 0 0 0 0 0.25 0"/>
<feBlend mode="normal" in2="BackgroundImageFix" result="effect1_dropShadow_155_280"/>
<feBlend mode="normal" in="SourceGraphic" in2="effect1_dropShadow_155_280" result="shape"/>
</filter>
</defs>
</svg>
