<svg width="38" height="38" viewBox="0 0 38 38" fill="none" xmlns="http://www.w3.org/2000/svg">
<g filter="url(#filter0_d_239_923)">
<rect x="4" width="30" height="30" rx="15" fill="#3B82F6" fill-opacity="0.63" shape-rendering="crispEdges"/>
<path d="M22.75 7.5H15.25C13.1789 7.5 11.5 9.17893 11.5 11.25V18.75C11.5 20.8211 13.1789 22.5 15.25 22.5H22.75C24.8211 22.5 26.5 20.8211 26.5 18.75V11.25C26.5 9.17893 24.8211 7.5 22.75 7.5Z" stroke="white" stroke-width="1.5" stroke-linecap="round" stroke-linejoin="round"/>
<path d="M15.6665 18.646V13.9585M18.9998 18.646V16.2502M18.9998 16.2502V13.9585M18.9998 16.2502C18.9998 15.1772 20.0182 14.5835 20.9998 14.5835C22.3332 14.5835 22.3332 15.7293 22.3332 16.9793V18.646" stroke="white" stroke-width="1.5" stroke-linecap="round" stroke-linejoin="round"/>
<path d="M15.6665 11.354L15.6665 11.7707" stroke="white" stroke-width="1.5" stroke-linecap="round" stroke-linejoin="round"/>
</g>
<defs>
<filter id="filter0_d_239_923" x="0" y="0" width="38" height="38" filterUnits="userSpaceOnUse" color-interpolation-filters="sRGB">
<feFlood flood-opacity="0" result="BackgroundImageFix"/>
<feColorMatrix in="SourceAlpha" type="matrix" values="0 0 0 0 0 0 0 0 0 0 0 0 0 0 0 0 0 0 127 0" result="hardAlpha"/>
<feOffset dy="4"/>
<feGaussianBlur stdDeviation="2"/>
<feComposite in2="hardAlpha" operator="out"/>
<feColorMatrix type="matrix" values="0 0 0 0 0 0 0 0 0 0 0 0 0 0 0 0 0 0 0.25 0"/>
<feBlend mode="normal" in2="BackgroundImageFix" result="effect1_dropShadow_239_923"/>
<feBlend mode="normal" in="SourceGraphic" in2="effect1_dropShadow_239_923" result="shape"/>
</filter>
</defs>
</svg>
