<svg width="56" height="56" viewBox="0 0 56 56" fill="none" xmlns="http://www.w3.org/2000/svg">
<g filter="url(#filter0_d_155_294)">
<rect x="11" y="7" width="34" height="34" rx="8" fill="#0F172A"/>
<path d="M39 15.01C39 15.01 36.982 16.202 35.86 16.54C35.2577 15.8475 34.4573 15.3567 33.567 15.1339C32.6767 14.9112 31.7395 14.9672 30.8821 15.2944C30.0247 15.6217 29.2884 16.2044 28.773 16.9637C28.2575 17.723 27.9877 18.6223 28 19.54V20.54C26.2426 20.5856 24.5013 20.1958 22.931 19.4054C21.3607 18.6151 20.0103 17.4486 19 16.01C19 16.01 15 25.01 24 29.01C21.9405 30.408 19.4872 31.1089 17 31.01C26 36.01 37 31.01 37 19.51C36.9993 19.2313 36.9727 18.9547 36.92 18.68C37.94 17.674 39 15.01 39 15.01Z" stroke="white" stroke-linecap="round" stroke-linejoin="round"/>
</g>
<defs>
<filter id="filter0_d_155_294" x="0" y="0" width="56" height="56" filterUnits="userSpaceOnUse" color-interpolation-filters="sRGB">
<feFlood flood-opacity="0" result="BackgroundImageFix"/>
<feColorMatrix in="SourceAlpha" type="matrix" values="0 0 0 0 0 0 0 0 0 0 0 0 0 0 0 0 0 0 127 0" result="hardAlpha"/>
<feMorphology radius="1" operator="dilate" in="SourceAlpha" result="effect1_dropShadow_155_294"/>
<feOffset dy="4"/>
<feGaussianBlur stdDeviation="5"/>
<feComposite in2="hardAlpha" operator="out"/>
<feColorMatrix type="matrix" values="0 0 0 0 0 0 0 0 0 0 0 0 0 0 0 0 0 0 0.25 0"/>
<feBlend mode="normal" in2="BackgroundImageFix" result="effect1_dropShadow_155_294"/>
<feBlend mode="normal" in="SourceGraphic" in2="effect1_dropShadow_155_294" result="shape"/>
</filter>
</defs>
</svg>
