<svg width="26" height="26" viewBox="0 0 26 26" fill="none" xmlns="http://www.w3.org/2000/svg">
<path fill-rule="evenodd" clip-rule="evenodd" d="M18.3608 5.89765C18.0186 5.40524 17.1036 4.71315 15.6215 5.0117C14.7569 5.18521 14.2403 5.61267 13.9117 6.17681C13.5618 6.77778 13.3921 7.59491 13.3921 8.54581C13.3921 8.80288 13.29 9.04943 13.1082 9.23121C12.9264 9.41299 12.6799 9.51512 12.4228 9.51512C10.1294 9.51512 7.94654 8.83369 6.10969 6.99103C5.97085 7.73864 5.91623 8.49945 5.94685 9.25922C5.99822 10.3119 6.24927 11.3675 6.8454 12.2718C7.43183 13.1607 8.3963 13.9749 10.0092 14.4867C10.1673 14.5368 10.3098 14.6267 10.4232 14.7476C10.5367 14.8686 10.6171 15.0166 10.657 15.1776C10.6969 15.3385 10.6948 15.507 10.651 15.6669C10.6071 15.8268 10.523 15.9728 10.4066 16.0909C9.89015 16.621 9.30459 17.0791 8.66576 17.4528C9.69323 17.5594 10.6839 17.5672 11.6028 17.4838C13.4639 17.3152 14.9459 16.783 15.8726 16.0299C17.8238 14.4479 18.8678 12.0886 18.6739 8.13579C18.6409 7.48635 19.2681 6.78554 19.5705 6.25339C19.114 6.33869 18.6565 6.32318 18.3608 5.89765ZM5.54361 3.95418C5.71911 3.93379 5.89684 3.96174 6.0576 4.03503C6.21836 4.10832 6.35603 4.22416 6.45573 4.37002C7.88644 6.46276 9.60406 7.3332 11.5107 7.53094C11.6037 6.71575 11.8238 5.91025 12.2377 5.20072C12.8445 4.15968 13.8312 3.39392 15.2406 3.11088C17.1889 2.71928 18.672 3.42494 19.5317 4.28859L21.2687 3.96388C21.4505 3.92982 21.6382 3.94847 21.8097 4.01762C21.9813 4.08678 22.1294 4.20355 22.2367 4.35417C22.344 4.50478 22.406 4.68295 22.4153 4.86764C22.4247 5.05233 22.381 5.23584 22.2894 5.39652L20.6222 8.32577C20.7744 12.5529 19.5996 15.5035 17.0949 17.5362C15.7669 18.614 13.8652 19.2257 11.7782 19.4147C9.67482 19.6047 7.2971 19.3749 4.93392 18.6848C4.732 18.6259 4.55472 18.5029 4.42883 18.3344C4.30294 18.1659 4.23528 17.9611 4.23604 17.7507C4.23681 17.5404 4.30597 17.336 4.43308 17.1685C4.56019 17.0009 4.73836 16.8792 4.9407 16.8218C6.12908 16.4835 7.03441 16.1917 7.85154 15.6809C6.68934 15.0644 5.83344 14.258 5.22762 13.3391C4.38626 12.0615 4.07414 10.6366 4.0121 9.35227C3.95007 8.06794 4.1352 6.87762 4.331 6.01978C4.44248 5.53028 4.57236 5.03981 4.75169 4.57066C4.81494 4.40529 4.92228 4.2604 5.06206 4.15172C5.20184 4.04304 5.36775 3.97472 5.54361 3.95418Z" fill="#3B82F6"/>
</svg>
