<svg width="24" height="24" viewBox="0 0 24 24" fill="none" xmlns="http://www.w3.org/2000/svg">
<path d="M14.9 9.09998C16.2526 9.09998 17.5498 9.6373 18.5062 10.5937C19.4627 11.5502 20 12.8474 20 14.2V20.15H16.6V14.2C16.6 13.7491 16.4209 13.3167 16.1021 12.9979C15.7833 12.6791 15.3509 12.5 14.9 12.5C14.4491 12.5 14.0167 12.6791 13.6979 12.9979C13.3791 13.3167 13.2 13.7491 13.2 14.2V20.15H9.8V14.2C9.8 12.8474 10.3373 11.5502 11.2938 10.5937C12.2502 9.6373 13.5474 9.09998 14.9 9.09998ZM3 9.94998H6.4V20.15H3V9.94998Z" stroke="#3B82F6" stroke-linecap="round" stroke-linejoin="round"/>
<path d="M4.7 7.4C5.63888 7.4 6.4 6.63888 6.4 5.7C6.4 4.76112 5.63888 4 4.7 4C3.76112 4 3 4.76112 3 5.7C3 6.63888 3.76112 7.4 4.7 7.4Z" stroke="#3B82F6" stroke-linecap="round" stroke-linejoin="round"/>
</svg>
