<svg width="26" height="26" viewBox="0 0 26 26" fill="none" xmlns="http://www.w3.org/2000/svg">
<path fill-rule="evenodd" clip-rule="evenodd" d="M16.5184 3C17.7954 3 19.0201 3.50727 19.923 4.41023C20.826 5.31318 21.3332 6.53785 21.3332 7.81482V15.5185C21.3332 16.7955 20.826 18.0202 19.923 18.9231C19.0201 19.8261 17.7954 20.3333 16.5184 20.3333H8.81472C7.53776 20.3333 6.31309 19.8261 5.41014 18.9231C4.50718 18.0202 3.99991 16.7955 3.99991 15.5185V7.81482C3.99991 6.53785 4.50718 5.31318 5.41014 4.41023C6.31309 3.50727 7.53776 3 8.81472 3H16.5184ZM16.5184 4.92593H8.81472C8.04854 4.92593 7.31374 5.23029 6.77197 5.77206C6.2302 6.31383 5.92583 7.04864 5.92583 7.81482V15.5185C5.92583 16.2847 6.2302 17.0195 6.77197 17.5613C7.31374 18.103 8.04854 18.4074 8.81472 18.4074H16.5184C17.2846 18.4074 18.0194 18.103 18.5612 17.5613C19.103 17.0195 19.4073 16.2847 19.4073 15.5185V7.81482C19.4073 7.04864 19.103 6.31383 18.5612 5.77206C18.0194 5.23029 17.2846 4.92593 16.5184 4.92593ZM12.6666 7.81482C13.6882 7.81482 14.6679 8.22063 15.3902 8.943C16.1126 9.66536 16.5184 10.6451 16.5184 11.6667C16.5184 12.6882 16.1126 13.668 15.3902 14.3903C14.6679 15.1127 13.6882 15.5185 12.6666 15.5185C11.645 15.5185 10.6653 15.1127 9.9429 14.3903C9.22054 13.668 8.81472 12.6882 8.81472 11.6667C8.81472 10.6451 9.22054 9.66536 9.9429 8.943C10.6653 8.22063 11.645 7.81482 12.6666 7.81482ZM12.6666 9.74074C12.1558 9.74074 11.6659 9.94365 11.3047 10.3048C10.9436 10.666 10.7406 11.1559 10.7406 11.6667C10.7406 12.1775 10.9436 12.6673 11.3047 13.0285C11.6659 13.3897 12.1558 13.5926 12.6666 13.5926C13.1774 13.5926 13.6672 13.3897 14.0284 13.0285C14.3896 12.6673 14.5925 12.1775 14.5925 11.6667C14.5925 11.1559 14.3896 10.666 14.0284 10.3048C13.6672 9.94365 13.1774 9.74074 12.6666 9.74074ZM16.9999 6.37037C17.2553 6.37037 17.5002 6.47183 17.6808 6.65242C17.8614 6.83301 17.9629 7.07794 17.9629 7.33333C17.9629 7.58873 17.8614 7.83366 17.6808 8.01425C17.5002 8.19484 17.2553 8.2963 16.9999 8.2963C16.7445 8.2963 16.4996 8.19484 16.319 8.01425C16.1384 7.83366 16.0369 7.58873 16.0369 7.33333C16.0369 7.07794 16.1384 6.83301 16.319 6.65242C16.4996 6.47183 16.7445 6.37037 16.9999 6.37037Z" fill="#3B82F6"/>
</svg>
