<svg width="44" height="44" viewBox="0 0 44 44" fill="none" xmlns="http://www.w3.org/2000/svg">
    <rect x="1" y="1" width="42" height="42" rx="21" fill="#0F172A"/>
    <rect x="1" y="1" width="42" height="42" rx="21" stroke="#5355DD" stroke-width="2"/>
    <g transform="translate(10, 10)">
        <path d="M14.7692 21C15.8929 16.3512 17.2565 14.9013 21 13.6364C17.0664 12.3084 15.8396 10.6969 14.7692 6.27273C13.6455 10.9216 12.282 12.3714 8.53846 13.6364C12.4674 14.9628 13.7012 16.5852 14.7692 21ZM6.46154 11.1818C6.9739 8.76207 7.96386 7.66977 9.92308 7.09091C7.96386 6.51205 6.9739 5.41975 6.46154 3C5.97132 5.31517 5.04749 6.48539 3 7.09091C4.95899 7.67026 5.94917 8.76206 6.46154 11.1818Z" stroke="white" stroke-width="1.5" stroke-linecap="round" stroke-linejoin="round"/>
    </g>
</svg>