<svg width="44" height="44" viewBox="0 0 44 44" fill="none" xmlns="http://www.w3.org/2000/svg">
<rect x="1" y="1" width="42" height="42" rx="21" fill="#0F172A"/>
<rect x="1" y="1" width="42" height="42" rx="21" stroke="#5355DD" stroke-width="2"/>
<path d="M25 17H31V23" stroke="white" stroke-width="1.5" stroke-linecap="round" stroke-linejoin="round"/>
<path d="M13 28L17.4431 22.7772C17.7536 22.4121 17.9089 22.2296 18.1014 22.1377C18.271 22.0566 18.46 22.0251 18.6468 22.0466C18.8587 22.0709 19.0649 22.1931 19.4773 22.4374L22.3026 24.1113C22.688 24.3396 22.8807 24.4538 23.0808 24.4812C23.2574 24.5054 23.4372 24.482 23.6017 24.4134C23.7881 24.3356 23.9451 24.1759 24.2591 23.8565L31 17" stroke="white" stroke-width="1.5" stroke-linecap="round" stroke-linejoin="round"/>
</svg>
